<svg width="40" height="40" viewBox="0 0 40 40" fill="none" xmlns="http://www.w3.org/2000/svg">
<path d="M0 19.3548C0 8.66546 8.66546 0 19.3548 0H20C31.0457 0 40 8.95431 40 20C40 31.0457 31.0457 40 20 40C8.9543 40 0 31.0457 0 20V19.3548Z" fill="#6D0000"/>
<path d="M29.5955 20.3993H27.3048C27.1838 19.5078 26.5035 18.7877 25.6203 18.5687V14.7904C25.6203 14.5016 25.3791 14.2748 25.0908 14.2748H22.7234V13.4317C22.7234 11.4657 21.0608 9.875 19.0275 9.875C18.578 9.875 18.1468 9.95265 17.7476 10.0949C17.3485 9.95265 16.9172 9.875 16.4678 9.875C14.4345 9.875 12.7719 11.4657 12.7719 13.4317V14.2748H10.4045C10.1162 14.2748 9.875 14.5016 9.875 14.7904V28.1474C9.875 29.2422 10.7971 30.125 11.9211 30.125H28.0121C29.1731 30.125 30.125 29.2119 30.125 28.0803V20.9149C30.125 20.626 29.8837 20.3993 29.5955 20.3993ZM25.0543 19.5312C25.6222 19.5312 26.0948 19.904 26.2276 20.3993H23.8809C24.0137 19.904 24.4863 19.5312 25.0543 19.5312ZM24.5613 15.3061V18.5518C23.6426 18.7484 22.928 19.4834 22.8037 20.3993H20.5255C20.2373 20.3993 19.996 20.6261 19.996 20.9149V28.0804C19.996 28.449 20.0974 28.7951 20.2742 29.0938H13.4264V15.3061H15.3316V17.1844C15.3316 17.4733 15.5729 17.7 15.8611 17.7C16.1494 17.7 16.3906 17.4733 16.3906 17.1844V15.3061H21.6644V17.1844C21.6644 17.4733 21.9056 17.7 22.1939 17.7C22.4821 17.7 22.7234 17.4733 22.7234 17.1844V15.3061H24.5613ZM16.3906 13.4317C16.3906 12.486 16.9368 11.6572 17.7476 11.2242C18.5585 11.6572 19.1046 12.486 19.1046 13.4317V14.2748H16.3906V13.4317ZM19.0681 10.9065C20.5081 10.9274 21.6644 12.057 21.6644 13.4317V14.2748H20.1636V13.4317C20.1636 12.4443 19.7434 11.5506 19.0681 10.9065ZM15.3317 13.4316V14.2748H13.8309V13.4317C13.8309 12.057 14.9871 10.9275 16.4271 10.9065C15.7518 11.5507 15.3317 12.4443 15.3317 13.4316ZM10.934 28.1474V15.3061H12.3674V29.0938H11.9211C11.3725 29.0938 10.934 28.6648 10.934 28.1474ZM29.066 28.0803C29.066 28.6349 28.5973 29.0938 28.0121 29.0938H22.1088C21.5237 29.0938 21.055 28.6349 21.055 28.0803V21.4305H22.7845V22.8493C22.7845 23.1381 23.0258 23.3649 23.314 23.3649C23.6023 23.3649 23.8435 23.1381 23.8435 22.8493V21.4305H26.265V22.8493C26.265 23.1381 26.5062 23.3649 26.7945 23.3649C27.0828 23.3649 27.324 23.1381 27.324 22.8493V21.4305H29.066V28.0803Z" fill="white" stroke="white" stroke-width="0.25"/>
</svg>
