<svg width="191" height="140" viewBox="0 0 191 140" fill="none" xmlns="http://www.w3.org/2000/svg">
<g clip-path="url(#clip0_28_18)">
<path d="M95.3839 0V8.79799H87.8669L95.3839 0Z" fill="#6C6C6C"/>
<path d="M95.3839 0V8.79799H102.902L95.3839 0Z" fill="#6C6C6C"/>
<path d="M95.3839 17.595V8.79797H102.902L95.3839 17.595Z" fill="#6C6C6C"/>
<path d="M95.3839 17.595V8.79797H87.8669L95.3839 17.595Z" fill="#6C6C6C"/>
<path d="M148.217 3.51904V8.79803H143.707L148.217 3.51904Z" fill="#6C6C6C"/>
<path d="M148.217 3.51904V8.79803H152.727L148.217 3.51904Z" fill="#6C6C6C"/>
<path d="M148.217 14.076V8.79797H152.727L148.217 14.076Z" fill="#6C6C6C"/>
<path d="M148.217 14.076V8.79797H143.707L148.217 14.076Z" fill="#6C6C6C"/>
<path d="M42.692 3.51904V8.79803H38.1818L42.692 3.51904Z" fill="#6C6C6C"/>
<path d="M42.692 3.51904V8.79803H47.2023L42.692 3.51904Z" fill="#6C6C6C"/>
<path d="M42.692 14.076V8.79797H47.2023L42.692 14.076Z" fill="#6C6C6C"/>
<path d="M42.692 14.076V8.79797H38.1818L42.692 14.076Z" fill="#6C6C6C"/>
<path d="M60.1393 5.27808V8.79803H57.1324L60.1393 5.27808Z" fill="#6C6C6C"/>
<path d="M60.1393 5.27808V8.79803H63.1461L60.1393 5.27808Z" fill="#6C6C6C"/>
<path d="M60.1393 12.316V8.79797H63.1461L60.1393 12.316Z" fill="#6C6C6C"/>
<path d="M60.1393 12.316V8.79797H57.1324L60.1393 12.316Z" fill="#6C6C6C"/>
<path d="M77.7267 5.27808V8.79803H74.7199L77.7267 5.27808Z" fill="#6C6C6C"/>
<path d="M77.7267 5.27808V8.79803H80.7336L77.7267 5.27808Z" fill="#6C6C6C"/>
<path d="M77.7267 12.316V8.79797H80.7336L77.7267 12.316Z" fill="#6C6C6C"/>
<path d="M77.7267 12.316V8.79797H74.7199L77.7267 12.316Z" fill="#6C6C6C"/>
<path d="M112.902 5.27808V8.79803H109.895L112.902 5.27808Z" fill="#6C6C6C"/>
<path d="M112.902 5.27808V8.79803H115.909L112.902 5.27808Z" fill="#6C6C6C"/>
<path d="M112.902 12.316V8.79797H115.909L112.902 12.316Z" fill="#6C6C6C"/>
<path d="M112.902 12.316V8.79797H109.895L112.902 12.316Z" fill="#6C6C6C"/>
<path d="M130.489 5.27808V8.79803H127.482L130.489 5.27808Z" fill="#6C6C6C"/>
<path d="M130.489 5.27808V8.79803H133.496L130.489 5.27808Z" fill="#6C6C6C"/>
<path d="M130.489 12.316V8.79797H133.496L130.489 12.316Z" fill="#6C6C6C"/>
<path d="M130.489 12.316V8.79797H127.482L130.489 12.316Z" fill="#6C6C6C"/>
<path d="M93.1856 26.1304C92.4525 26.14 91.7203 26.1304 90.9901 26.16L88.7947 26.2183C88.0616 26.2536 87.3294 26.2746 86.5992 26.3224V26.7445C86.9364 27.1086 87.304 27.4434 87.6979 27.7453C87.8812 27.8952 88.0644 28.0165 88.2477 28.1502C88.431 28.2839 88.6143 28.3879 88.7975 28.5083C89.4918 28.9352 90.2273 29.2909 90.993 29.5702L91.0092 29.5759C91.4656 29.738 91.861 30.037 92.1413 30.4321C92.4216 30.8272 92.5733 31.2992 92.5756 31.7838V60.9156C91.7547 60.7375 90.9474 60.5016 90.1597 60.2099C88.5723 59.6197 87.2244 58.7144 86.0179 57.5828C84.8114 56.4512 83.727 55.1266 82.6951 53.7324C82.1787 53.0353 81.6671 52.3258 81.1736 51.5971C80.6801 50.8685 80.1808 50.1399 79.6969 49.4007L76.7645 44.9239L76.0219 43.8028L75.6487 43.2432C75.5227 43.0522 75.4005 42.8727 75.2668 42.6798C74.731 41.9158 74.1901 41.1588 73.6441 40.4089C72.5044 38.9316 71.3389 37.4753 70.0693 36.0944C69.467 35.382 68.7855 34.7288 68.1364 34.0527L67.6467 33.5476C67.4854 33.3785 67.305 33.2248 67.1341 33.0624L66.0984 32.1018C65.7624 31.7742 65.3902 31.4791 65.0274 31.1754C64.6647 30.8718 64.302 30.5691 63.9326 30.274L62.7871 29.4307C62.5962 29.2932 62.4053 29.1443 62.2077 29.0173L61.6035 28.6305L61.0002 28.2485C60.899 28.1845 60.7998 28.1196 60.6976 28.0575L60.3817 27.8828C59.9598 27.6526 59.5436 27.4148 59.1169 27.1942L57.8025 26.5831C57.351 26.4035 56.8957 26.2317 56.4423 26.0579L55.7388 25.8459L55.3865 25.7408L55.2109 25.6892L55.0305 25.6482C54.5475 25.5403 54.0712 25.4209 53.5729 25.3617C53.3266 25.3244 53.0823 25.2824 52.8274 25.2662L52.4456 25.2366L52.2547 25.2213C52.1907 25.2213 52.1258 25.2213 52.0638 25.2213H51.6819H51.491L51.3087 25.228C51.0653 25.2375 50.8209 25.2538 50.5766 25.2738C49.5806 25.3514 48.5971 25.5453 47.6461 25.8516C46.6597 26.1693 45.7367 26.6576 44.919 27.2945C44.1032 27.9503 43.4313 28.7672 42.945 29.6943C42.4853 30.5885 42.1742 31.5516 42.0238 32.5458C41.8768 33.499 41.8301 34.4649 41.8845 35.4279C41.9282 36.4082 42.128 37.3753 42.4763 38.2927C42.8263 39.2084 43.3396 40.0529 43.9912 40.7851C44.6313 41.4984 45.3781 42.1082 46.2048 42.5929C46.609 42.8329 47.0283 43.0466 47.46 43.2327C47.8862 43.4195 48.3224 43.5824 48.7668 43.7207C49.6497 44.0021 50.5595 44.1909 51.4815 44.2841L51.5283 43.8639C50.6585 43.6974 49.8082 43.4414 48.9911 43.1C48.1732 42.7667 47.3967 42.3395 46.6773 41.827C45.9755 41.3379 45.3534 40.7433 44.8331 40.0642C44.3279 39.399 43.9482 38.6472 43.7124 37.8458C43.4813 37.0456 43.3751 36.2146 43.3974 35.382C43.4105 34.5344 43.5116 33.6905 43.6991 32.8638C43.8748 32.0741 44.1782 31.3183 44.5973 30.6263C45.0026 29.9717 45.5384 29.4077 46.1713 28.9695C47.4294 28.0976 49.0483 27.7472 50.6978 27.7157C50.9046 27.7118 51.1127 27.7118 51.3221 27.7157H51.4786L51.6247 27.7262L51.911 27.7481C51.9597 27.7481 52.0065 27.7539 52.0571 27.7596L52.205 27.7825L52.5019 27.8255C52.7017 27.8532 52.8999 27.8915 53.0956 27.9401C53.4927 28.0136 53.8879 28.1425 54.2821 28.2571L54.4291 28.3001L54.5761 28.3536L54.8682 28.4634L55.4514 28.6792L56.5969 29.193L57.7147 29.7946C58.0803 30.0095 58.4373 30.2415 58.799 30.4631L59.0701 30.6311C59.1579 30.6913 59.2438 30.7553 59.3307 30.8164L59.8519 31.1907L60.3731 31.5632C60.5478 31.6854 60.7091 31.8315 60.8771 31.9652L61.8755 32.7798C62.1982 33.0663 62.5122 33.3652 62.8301 33.6564C63.1479 33.9477 63.4706 34.2294 63.7655 34.556L64.6666 35.4957C64.8146 35.6551 64.9721 35.8032 65.1124 35.9731L65.5381 36.4707C66.1023 37.1391 66.6769 37.7885 67.1923 38.5009L67.9818 39.5513C68.1116 39.728 68.249 39.897 68.3722 40.0785L68.7416 40.6247L69.4823 41.7134C69.7267 42.0782 69.9853 42.4296 70.2087 42.8106C70.6745 43.5583 71.1423 44.3032 71.6186 45.0423C71.7369 45.2228 71.8582 45.4195 71.9784 45.6153L72.3412 46.194C72.5846 46.576 72.8289 46.9656 73.0819 47.3466C74.0813 48.8746 75.1304 50.3805 76.2472 51.8521C76.8123 52.5836 77.3821 53.3132 77.9768 54.0313C78.2765 54.3885 78.5753 54.7456 78.8874 55.097C79.1996 55.4485 79.5088 55.8018 79.8334 56.1475C80.4844 56.8331 81.1468 57.514 81.8752 58.1529C82.6001 58.8065 83.3701 59.4083 84.1794 59.9539C85.0089 60.5106 85.8941 60.9791 86.8207 61.352C87.3138 61.5482 87.8196 61.7109 88.3346 61.839L88.0959 61.9087C86.9123 62.2729 85.7688 62.757 84.6834 63.3536C83.6001 63.9504 82.5705 64.6399 81.606 65.4143C81.1287 65.7963 80.6791 66.2041 80.2362 66.6205L80.2133 66.6405C79.7561 67.0559 79.3036 67.479 78.8769 67.9249C78.0124 68.8114 77.2034 69.7503 76.4543 70.7363C74.9644 72.7104 73.6546 74.8143 72.5407 77.0228C72.2543 77.5719 71.9908 78.1276 71.7264 78.6853L70.9733 80.3422C70.4795 81.4245 69.9733 82.5016 69.4546 83.5737C68.4148 85.7147 67.3276 87.829 66.1929 89.9165C65.6272 90.9606 65.0481 91.9967 64.4557 93.0249C64.1617 93.5396 63.86 94.0505 63.5603 94.5614L63.1031 95.3254L62.8769 95.7074L62.6583 96.0578C62.0623 97.0045 61.4167 97.919 60.7243 98.7976C60.405 99.2021 60.064 99.5891 59.703 99.9569C59.5501 100.112 59.3885 100.258 59.219 100.394C59.1161 100.484 59.0011 100.56 58.8773 100.618C58.6114 100.694 58.3587 100.81 58.128 100.962C57.8295 101.161 57.5741 101.417 57.3769 101.716C57.1798 102.016 57.045 102.352 56.9807 102.704C56.9164 103.057 56.9238 103.419 57.0025 103.769C57.0812 104.118 57.2296 104.448 57.4388 104.739C58.2807 105.915 59.9283 106.172 61.1319 105.369L61.6226 105.042C62.0091 104.783 62.3686 104.485 62.6955 104.154C62.9674 103.883 63.2248 103.597 63.4668 103.299C63.8989 102.764 64.3023 102.207 64.6752 101.629C65.3702 100.546 66.0074 99.4273 66.5843 98.2772L66.8019 97.8388L67.0024 97.4234L67.3966 96.6031C67.6572 96.0521 67.9178 95.5011 68.1717 94.9463C68.6808 93.8398 69.1784 92.7276 69.6646 91.6097C70.6338 89.3757 71.5486 87.1217 72.4089 84.8476C72.8398 83.7113 73.2563 82.5698 73.6584 81.4232L74.2512 79.7367C74.4536 79.1876 74.6588 78.6385 74.8793 78.0961C75.743 75.9217 76.8001 73.8293 78.0379 71.844C78.6582 70.8551 79.3388 69.9054 80.0759 69.0002C80.4414 68.5437 80.8309 68.1092 81.2213 67.6795L81.2375 67.6623C81.6461 67.2574 82.0673 66.8662 82.5013 66.4887C82.9414 66.1067 83.3919 65.7371 83.8597 65.3905C84.3274 65.0438 84.8142 64.722 85.3029 64.4088C86.2922 63.7897 87.3345 63.2598 88.4176 62.8255C89.0651 62.5687 89.7264 62.3481 90.3983 62.1646C91.1139 62.2202 91.8323 62.2282 92.5489 62.1885H92.5661V91.5323C92.5637 92.0163 92.4124 92.4879 92.1326 92.8828C91.8529 93.2777 91.4583 93.5767 91.0025 93.7392L90.9834 93.7459C90.218 94.0249 89.4825 94.38 88.788 94.8059C88.408 95.0406 88.0409 95.2956 87.6884 95.5699C87.2947 95.8699 86.9272 96.2028 86.5897 96.5649V96.987C87.3228 97.0348 88.0549 97.0558 88.7851 97.0901L90.9806 97.1494C91.7137 97.1742 92.4458 97.1694 93.176 97.179L95.3658 97.1981L95.3085 26.1161L93.1856 26.1304Z" fill="#6C6C6C"/>
<path d="M148.764 32.5305C148.613 31.5363 148.302 30.5732 147.842 29.6791C147.356 28.752 146.684 27.9351 145.869 27.2793C145.051 26.6424 144.128 26.154 143.142 25.8363C142.191 25.5301 141.207 25.3362 140.211 25.2586C139.967 25.2385 139.723 25.2223 139.479 25.2127L139.297 25.2061H139.106H138.718C138.654 25.2061 138.589 25.2061 138.527 25.2061L138.337 25.2213L137.955 25.2509C137.7 25.2653 137.455 25.3073 137.209 25.3464C136.71 25.4085 136.234 25.5279 135.752 25.6329L135.57 25.674L135.395 25.7255L135.043 25.8306L134.339 26.0426C133.886 26.2164 133.431 26.3883 132.979 26.5678L131.665 27.179C131.238 27.3996 130.822 27.6374 130.399 27.8675L130.084 28.0423C129.982 28.1043 129.883 28.1693 129.782 28.2333L129.179 28.6152L128.574 29.002C128.372 29.13 128.193 29.278 127.994 29.4155L126.846 30.2721C126.476 30.5672 126.117 30.8727 125.752 31.1736C125.386 31.4744 125.016 31.7723 124.681 32.0999L123.644 33.0605C123.474 33.2229 123.293 33.3766 123.132 33.5457L122.643 34.0508C121.993 34.7269 121.312 35.3801 120.71 36.0925C119.44 37.4734 118.275 38.9297 117.134 40.407C116.589 41.1595 116.049 41.9165 115.511 42.6779C115.375 42.8689 115.253 43.0551 115.13 43.2413L114.756 43.8009L114.014 44.922L111.081 49.3988C110.596 50.1418 110.104 50.8739 109.604 51.5952C109.11 52.3239 108.6 53.0334 108.083 53.7305C107.049 55.1247 105.962 56.4426 104.759 57.5809C103.557 58.7192 102.206 59.6178 100.618 60.208C99.83 60.4999 99.0227 60.7357 98.2017 60.9137V31.7733C98.2043 31.2893 98.3559 30.8179 98.6358 30.4232C98.9158 30.0285 99.3105 29.7296 99.7662 29.5673L99.7853 29.5606C100.972 29.1287 102.085 28.5143 103.082 27.7395C103.477 27.44 103.845 27.1071 104.182 26.7445V26.3224C103.449 26.2746 102.716 26.2536 101.986 26.2193L99.791 26.1601C99.0579 26.1352 98.3249 26.14 97.5956 26.1304L95.4001 26.1113H95.3343L95.3915 97.1933H95.4001L97.5956 97.1752C98.3287 97.1647 99.0618 97.1704 99.791 97.1446L101.986 97.0863C102.719 97.051 103.452 97.03 104.182 96.9823V96.5602C103.845 96.1958 103.477 95.861 103.082 95.5594C102.899 95.4094 102.716 95.2882 102.532 95.1545C102.349 95.0208 102.167 94.9167 101.984 94.7964C101.289 94.3697 100.554 94.0139 99.7882 93.7345L99.7719 93.7287C99.3153 93.5668 98.9198 93.2679 98.6393 92.8727C98.3588 92.4776 98.207 92.0055 98.2046 91.5209V62.1819H98.2218C98.9384 62.2215 99.6568 62.2136 100.372 62.158C101.044 62.3411 101.706 62.5617 102.353 62.8188C103.436 63.2532 104.479 63.783 105.469 64.4021C105.959 64.7144 106.444 65.0372 106.912 65.3838C107.38 65.7305 107.83 66.1 108.27 66.482C108.71 66.864 109.129 67.246 109.534 67.6556L109.55 67.6728C109.945 68.1026 110.334 68.5371 110.696 68.9935C111.432 69.8994 112.112 70.8498 112.732 71.8393C113.97 73.8243 115.026 75.9168 115.889 78.0914C116.111 78.6338 116.316 79.1829 116.518 79.732L117.11 81.4184C117.513 82.5644 117.93 83.7059 118.36 84.8429C119.223 87.1157 120.138 89.3697 121.105 91.6049C121.588 92.7235 122.085 93.8357 122.597 94.9415C122.851 95.4964 123.112 96.0474 123.373 96.5984L123.766 97.4187L123.967 97.8341L124.185 98.2724C124.762 99.4228 125.399 100.542 126.094 101.624C126.467 102.202 126.871 102.76 127.303 103.295C127.545 103.593 127.802 103.878 128.073 104.149C128.4 104.48 128.76 104.778 129.146 105.037L129.701 105.407C130.022 105.618 130.385 105.757 130.765 105.815C131.144 105.873 131.532 105.847 131.901 105.741C132.271 105.635 132.613 105.45 132.904 105.2C133.195 104.949 133.429 104.638 133.589 104.289C133.749 103.939 133.831 103.56 133.831 103.175C133.831 102.791 133.747 102.411 133.586 102.062C133.426 101.713 133.191 101.403 132.9 101.153C132.608 100.902 132.266 100.718 131.896 100.613C131.773 100.554 131.658 100.479 131.554 100.39C131.385 100.253 131.224 100.107 131.071 99.9522C130.71 99.5849 130.369 99.1978 130.05 98.7929C129.357 97.9145 128.712 97 128.116 96.0531L127.898 95.7026L127.671 95.3206L127.213 94.5567C126.913 94.0458 126.613 93.5349 126.319 93.0202C125.728 91.9914 125.149 90.9552 124.582 89.9118C123.444 87.8262 122.357 85.7119 121.32 83.569C120.801 82.4982 120.295 81.421 119.801 80.3374L119.047 78.6806C118.783 78.1229 118.516 77.5671 118.233 77.018C117.119 74.8096 115.809 72.7056 114.319 70.7315C113.57 69.746 112.761 68.8071 111.897 67.9202C111.468 67.4742 111.016 67.0512 110.56 66.6357L110.538 66.6157C110.094 66.1993 109.641 65.7935 109.168 65.4096C108.204 64.6314 107.174 63.938 106.09 63.3373C105.005 62.741 103.861 62.2569 102.678 61.8925L102.439 61.8228C102.954 61.6947 103.459 61.532 103.952 61.3358C104.879 60.9629 105.764 60.4944 106.594 59.9377C107.403 59.3921 108.173 58.7903 108.898 58.1367C109.626 57.4997 110.289 56.8188 110.94 56.1313C111.264 55.7884 111.581 55.438 111.885 55.0808C112.19 54.7237 112.497 54.3722 112.797 54.0151C113.391 53.297 113.961 52.5674 114.526 51.8359C115.642 50.3643 116.692 48.8602 117.692 47.3304C117.945 46.9484 118.188 46.5665 118.431 46.1778L118.795 45.5991C118.915 45.4081 119.036 45.2085 119.155 45.0261C119.626 44.294 120.095 43.5523 120.559 42.8011C120.783 42.4191 121.042 42.0686 121.285 41.7038L122.027 40.6152L122.397 40.0689C122.52 39.8875 122.656 39.7185 122.786 39.5418L123.575 38.4914C124.091 37.779 124.666 37.1277 125.23 36.4611L125.656 35.9636C125.797 35.7965 125.953 35.6485 126.101 35.4861L127.003 34.5465C127.297 34.2237 127.622 33.941 127.939 33.6469C128.256 33.3528 128.572 33.0577 128.893 32.7702L129.893 31.9557C130.061 31.822 130.222 31.6759 130.396 31.5536L130.917 31.1812L131.438 30.8069C131.526 30.7457 131.612 30.6818 131.7 30.6216L131.97 30.4535C132.331 30.2329 132.689 30.0009 133.055 29.7851L134.173 29.1911L135.318 28.6773L135.901 28.4615L136.194 28.3517L136.34 28.2982L136.488 28.2552C136.882 28.1406 137.276 28.0117 137.673 27.9382C137.869 27.8896 138.068 27.8513 138.268 27.8236L138.564 27.7806L138.713 27.7577C138.761 27.752 138.808 27.75 138.858 27.7462L139.144 27.7243L139.291 27.7138H139.448C139.656 27.7087 139.864 27.7087 140.071 27.7138C141.721 27.7453 143.34 28.0957 144.597 28.9676C145.231 29.4052 145.767 29.9694 146.171 30.6245C146.591 31.3164 146.895 32.0721 147.071 32.8619C147.258 33.6886 147.359 34.5326 147.371 35.3801C147.394 36.2127 147.288 37.0439 147.056 37.8439C146.821 38.6453 146.441 39.397 145.937 40.0623C145.417 40.7416 144.796 41.3368 144.095 41.827C143.38 42.3339 142.609 42.7565 141.797 43.0866C140.98 43.4279 140.129 43.6839 139.26 43.8506L139.305 44.2707C140.227 44.1776 141.137 43.9888 142.02 43.7073C142.465 43.5689 142.901 43.406 143.328 43.2193C143.759 43.0333 144.178 42.8196 144.582 42.5795C145.409 42.0949 146.156 41.4851 146.797 40.7718C147.448 40.0392 147.961 39.1948 148.311 38.2794C148.66 37.3622 148.86 36.395 148.903 35.4145C148.957 34.451 148.91 33.4844 148.764 32.5305Z" fill="#6C6C6C"/>
<path d="M10.1821 126.201L18.9955 134.96C20.44 136.406 21.673 137.389 22.6943 137.912C23.6452 138.414 24.6884 138.717 25.7603 138.802V139.454H14.4012V138.802C15.0815 138.802 15.5718 138.688 15.8722 138.458C16.1725 138.228 16.3224 137.973 16.3218 137.694C16.3261 137.431 16.2685 137.172 16.1538 136.936C16.0424 136.713 15.6755 136.296 15.0532 135.685L6.80877 127.524V135.221C6.80877 136.431 6.88514 137.23 7.03786 137.618C7.15559 137.912 7.40218 138.165 7.77764 138.376C8.26597 138.654 8.81834 138.8 9.38032 138.8H10.1907V139.451H0V138.8H0.845727C1.83209 138.8 2.54832 138.513 2.99441 137.94C3.27695 137.564 3.41791 136.659 3.41727 135.226V119.786C3.41727 118.576 3.34091 117.771 3.18818 117.371C3.07109 117.089 2.83055 116.842 2.46655 116.63C1.97029 116.354 1.4118 116.209 0.843818 116.208H0V115.556H10.1821V116.208H9.37173C8.81242 116.21 8.26209 116.349 7.76905 116.613C7.41709 116.787 7.14567 117.09 7.01114 117.459C6.87114 117.836 6.80082 118.611 6.80018 119.786V127.104C7.035 126.881 7.83936 126.135 9.21327 124.866C12.7012 121.671 14.8091 119.538 15.5371 118.468C15.8553 117.998 16.0144 117.587 16.0144 117.234C16.0115 117.095 15.9766 116.958 15.9124 116.834C15.8482 116.71 15.7564 116.603 15.644 116.521C15.3978 116.314 14.981 116.211 14.3936 116.212H13.8476V115.56H22.6227V116.212C22.1453 116.218 21.671 116.289 21.2129 116.423C20.7903 116.55 20.2736 116.8 19.6627 117.172C19.0518 117.544 18.3002 118.14 17.408 118.961C17.149 119.196 15.9568 120.401 13.8314 122.574L10.1821 126.201Z" fill="#6C6C6C"/>
<path d="M43.8194 116.86V126.307H49.0694C50.4324 126.307 51.3428 126.101 51.8003 125.689C52.4099 125.149 52.7504 124.198 52.8217 122.835H53.4736V131.153H52.8217C52.6575 129.99 52.4933 129.244 52.3291 128.915C52.0986 128.486 51.7332 128.146 51.2896 127.946C50.8079 127.711 50.0678 127.593 49.0694 127.593H43.8194V135.471C43.8194 136.529 43.8661 137.172 43.9597 137.401C44.0572 137.634 44.2313 137.826 44.4532 137.947C44.688 138.082 45.1334 138.15 45.7895 138.149H49.8406C51.1916 138.149 52.1723 138.054 52.7825 137.863C53.3928 137.672 53.9802 137.302 54.5446 136.753C55.2726 136.025 56.0184 134.926 56.7821 133.458H57.4865L55.4257 139.449H37.0192V138.798H37.8649C38.4246 138.798 38.9756 138.659 39.4676 138.392C39.6445 138.308 39.803 138.191 39.9341 138.045C40.0652 137.9 40.1662 137.73 40.2312 137.546C40.3661 137.169 40.4336 136.4 40.4336 135.237V119.715C40.4336 118.2 40.2809 117.266 39.9754 116.913C39.5522 116.443 38.8478 116.208 37.862 116.208H37.0163V115.556H55.4285L55.6929 120.79H55.0057C54.7588 119.533 54.4858 118.67 54.1867 118.199C53.865 117.712 53.4001 117.336 52.856 117.124C52.3864 116.948 51.5591 116.86 50.3742 116.86H43.8194Z" fill="#6C6C6C"/>
<path d="M85.6829 115.01V123.275H85.0309C84.819 121.688 84.4401 120.425 83.8941 119.486C83.3391 118.537 82.5309 117.762 81.5602 117.248C80.6026 116.709 79.5232 116.424 78.4245 116.419C77.2027 116.419 76.1928 116.792 75.3948 117.538C74.5968 118.285 74.1975 119.134 74.1968 120.085C74.1984 120.819 74.4679 121.527 74.9547 122.076C75.6821 122.958 77.4143 124.133 80.1513 125.601C82.3817 126.8 83.9055 127.719 84.7226 128.359C85.5102 128.966 86.154 129.739 86.6078 130.624C87.0421 131.469 87.2686 132.406 87.2684 133.356C87.2684 135.166 86.5665 136.725 85.1626 138.036C83.7588 139.346 81.9531 139.999 79.7456 139.996C79.0906 139.999 78.4366 139.946 77.7907 139.838C77.4261 139.778 76.6713 139.564 75.5265 139.195C74.3817 138.826 73.6565 138.64 73.3511 138.639C73.2231 138.632 73.0951 138.652 72.9752 138.698C72.8554 138.743 72.7464 138.814 72.6552 138.904C72.4853 139.081 72.3581 139.445 72.2734 139.996H71.6215V131.801H72.2734C72.5789 133.52 72.99 134.803 73.5067 135.652C74.0234 136.501 74.8131 137.209 75.8759 137.776C76.9536 138.343 78.1554 138.634 79.3733 138.622C80.8408 138.622 82.0002 138.234 82.8517 137.459C83.7031 136.683 84.1292 135.767 84.1298 134.71C84.1197 134.085 83.953 133.473 83.6449 132.929C83.3223 132.33 82.8202 131.771 82.1386 131.254C81.6805 130.902 80.4297 130.153 78.3863 129.007C76.343 127.862 74.8895 126.949 74.026 126.268C73.1662 125.588 72.5136 124.838 72.0682 124.015C71.6193 123.182 71.3894 122.248 71.4 121.301C71.4 119.586 72.058 118.109 73.374 116.869C74.69 115.63 76.3633 115.01 78.394 115.01C79.6622 115.01 81.0072 115.321 82.4288 115.944C83.0868 116.237 83.5504 116.384 83.8196 116.384C84.0956 116.395 84.3648 116.297 84.5689 116.111C84.7598 115.928 84.9154 115.561 85.0357 115.01H85.6829Z" fill="#6C6C6C"/>
<path d="M107.447 126.641H118.544V119.803C118.544 118.582 118.468 117.777 118.316 117.389C118.198 117.096 117.951 116.843 117.575 116.63C117.086 116.353 116.534 116.208 115.973 116.208H115.127V115.556H125.34V116.208H124.495C123.935 116.207 123.384 116.346 122.892 116.613C122.714 116.698 122.555 116.817 122.424 116.963C122.293 117.11 122.192 117.282 122.128 117.468C121.993 117.85 121.925 118.628 121.926 119.803V135.221C121.926 136.431 122.002 137.23 122.155 137.618C122.272 137.912 122.513 138.165 122.877 138.376C123.373 138.653 123.931 138.799 124.499 138.8H125.345V139.451H115.132V138.8H115.977C116.952 138.8 117.663 138.513 118.109 137.94C118.402 137.564 118.548 136.659 118.549 135.226V127.948H107.447V135.221C107.447 136.431 107.523 137.23 107.675 137.618C107.792 137.912 108.039 138.165 108.414 138.376C108.903 138.654 109.456 138.8 110.018 138.8H110.877V139.451H100.646V138.8H101.491C102.478 138.8 103.195 138.513 103.641 137.94C103.923 137.564 104.064 136.659 104.064 135.226V119.803C104.064 118.582 103.987 117.777 103.835 117.389C103.717 117.096 103.476 116.843 103.113 116.63C102.617 116.354 102.058 116.209 101.49 116.208H100.645V115.556H110.88V116.208H110.021C109.461 116.207 108.91 116.346 108.417 116.613C108.064 116.789 107.793 117.096 107.66 117.468C107.519 117.85 107.449 118.628 107.449 119.803L107.447 126.641Z" fill="#6C6C6C"/>
<path d="M144.448 116.86V126.307H149.698C151.059 126.307 151.969 126.101 152.428 125.689C153.038 125.149 153.379 124.198 153.45 122.835H154.102V131.153H153.45C153.284 129.99 153.12 129.244 152.956 128.915C152.726 128.486 152.361 128.145 151.917 127.946C151.436 127.711 150.696 127.593 149.698 127.593H144.448V135.471C144.448 136.529 144.495 137.172 144.589 137.401C144.686 137.634 144.86 137.827 145.082 137.947C145.317 138.082 145.763 138.15 146.419 138.149H150.471C151.821 138.149 152.802 138.054 153.413 137.863C154.024 137.672 154.611 137.302 155.175 136.753C155.902 136.025 156.648 134.926 157.411 133.458H158.117L156.055 139.449H137.645V138.798H138.49C139.05 138.798 139.602 138.659 140.094 138.392C140.271 138.308 140.429 138.19 140.56 138.045C140.691 137.9 140.792 137.73 140.858 137.546C140.992 137.169 141.059 136.4 141.06 135.237V119.715C141.06 118.2 140.907 117.266 140.602 116.913C140.179 116.443 139.474 116.208 138.487 116.208H137.645V115.556H156.054L156.318 120.79H155.631C155.385 119.533 155.112 118.67 154.812 118.199C154.491 117.712 154.026 117.336 153.482 117.124C153.013 116.948 152.185 116.86 151.001 116.86H144.448Z" fill="#6C6C6C"/>
<path d="M190.645 115.556L190.909 121.16H190.241C190.114 120.174 189.937 119.469 189.712 119.045C189.391 118.408 188.884 117.882 188.258 117.539C187.654 117.216 186.859 117.054 185.872 117.054H182.509V135.317C182.509 136.786 182.668 137.702 182.986 138.066C183.432 138.56 184.119 138.807 185.047 138.807H185.876V139.459H175.741V138.807H176.591C177.601 138.807 178.317 138.502 178.741 137.89C178.998 137.514 179.126 136.655 179.122 135.312V117.054H176.251C175.135 117.054 174.342 117.136 173.873 117.301C173.262 117.524 172.74 117.953 172.305 118.587C171.87 119.221 171.612 120.079 171.53 121.16H170.862L171.148 115.556H190.645Z" fill="#6C6C6C"/>
</g>
<defs>
<clipPath id="clip0_28_18">
<rect width="190.909" height="140" fill="white"/>
</clipPath>
</defs>
</svg>
