<svg width="115" height="18" viewBox="0 0 115 18" fill="none" xmlns="http://www.w3.org/2000/svg">
<path d="M57.2021 0V8.79799H49.6851L57.2021 0Z" fill="#7F0000"/>
<path d="M57.2021 0V8.79799H64.7201L57.2021 0Z" fill="#6D0000"/>
<path d="M57.2021 17.595V8.79797H64.7201L57.2021 17.595Z" fill="#7F0000"/>
<path d="M57.2021 17.595V8.79797H49.6851L57.2021 17.595Z" fill="#6D0000"/>
<path d="M110.035 3.51901V8.79799H105.525L110.035 3.51901Z" fill="#7F0000"/>
<path d="M110.035 3.51901V8.79799H114.545L110.035 3.51901Z" fill="#6D0000"/>
<path d="M110.035 14.076V8.79797H114.545L110.035 14.076Z" fill="#7F0000"/>
<path d="M110.035 14.076V8.79797H105.525L110.035 14.076Z" fill="#6D0000"/>
<path d="M4.51023 3.51901V8.79799H0L4.51023 3.51901Z" fill="#7F0000"/>
<path d="M4.51022 3.51901V8.79799H9.02045L4.51022 3.51901Z" fill="#6D0000"/>
<path d="M4.51022 14.076V8.79797H9.02045L4.51022 14.076Z" fill="#7F0000"/>
<path d="M4.51023 14.076V8.79797H0L4.51023 14.076Z" fill="#6D0000"/>
<path d="M21.9574 5.27805V8.798H18.9506L21.9574 5.27805Z" fill="#7F0000"/>
<path d="M21.9574 5.27805V8.798H24.9642L21.9574 5.27805Z" fill="#6D0000"/>
<path d="M21.9574 12.316V8.79797H24.9642L21.9574 12.316Z" fill="#7F0000"/>
<path d="M21.9574 12.316V8.79797H18.9506L21.9574 12.316Z" fill="#6D0000"/>
<path d="M39.5449 5.27805V8.798H36.5381L39.5449 5.27805Z" fill="#7F0000"/>
<path d="M39.5449 5.27805V8.798H42.5518L39.5449 5.27805Z" fill="#6D0000"/>
<path d="M39.5449 12.316V8.79797H42.5518L39.5449 12.316Z" fill="#7F0000"/>
<path d="M39.5449 12.316V8.79797H36.5381L39.5449 12.316Z" fill="#6D0000"/>
<path d="M74.7199 5.27805V8.798H71.7131L74.7199 5.27805Z" fill="#7F0000"/>
<path d="M74.7199 5.27805V8.798H77.7268L74.7199 5.27805Z" fill="#6D0000"/>
<path d="M74.7199 12.316V8.79797H77.7268L74.7199 12.316Z" fill="#7F0000"/>
<path d="M74.7199 12.316V8.79797H71.7131L74.7199 12.316Z" fill="#6D0000"/>
<path d="M92.3074 5.27805V8.798H89.3006L92.3074 5.27805Z" fill="#7F0000"/>
<path d="M92.3074 5.27805V8.798H95.3142L92.3074 5.27805Z" fill="#6D0000"/>
<path d="M92.3074 12.316V8.79797H95.3142L92.3074 12.316Z" fill="#7F0000"/>
<path d="M92.3074 12.316V8.79797H89.3006L92.3074 12.316Z" fill="#6D0000"/>
</svg>
