<svg width="25" height="25" viewBox="0 0 25 25" fill="none" xmlns="http://www.w3.org/2000/svg">
<path d="M12.5001 0C5.59655 0 0 5.61994 0 12.5523C0 18.7699 4.50652 23.919 10.4153 24.9161V15.1711H7.39993V11.6642H10.4153V9.07843C10.4153 6.07814 12.2402 4.44316 14.9059 4.44316C16.1826 4.44316 17.2798 4.53869 17.5983 4.58077V7.71686L15.7494 7.71776C14.3 7.71776 14.0206 8.40925 14.0206 9.42432V11.6624H17.479L17.0279 15.1693H14.0206V25C20.2052 24.2441 25 18.9638 25 12.5487C25 5.61994 19.4035 0 12.5001 0Z" fill="#6C6C6C"/>
</svg>
